<?xml version="1.0" standalone="no"?>
<!DOCTYPE svg PUBLIC "-//W3C//DTD SVG 20010904//EN"
 "http://www.w3.org/TR/2001/REC-SVG-20010904/DTD/svg10.dtd">
<svg version="1.0" xmlns="http://www.w3.org/2000/svg"
 width="512.000000pt" height="512.000000pt" viewBox="0 0 512.000000 512.000000"
 preserveAspectRatio="xMidYMid meet">

<g transform="translate(0.000000,512.000000) scale(0.100000,-0.100000)"
fill="#000000" stroke="none">
<path d="M2305 5109 c-683 -64 -1253 -366 -1522 -805 -81 -134 -98 -193 -98
-354 0 -155 16 -230 72 -350 36 -74 36 -75 18 -105 -126 -215 -204 -385 -273
-590 -165 -495 -193 -1002 -83 -1460 196 -808 797 -1295 1756 -1421 186 -25
601 -25 785 0 410 54 759 176 1038 362 121 81 277 223 372 339 215 264 348
605 396 1023 19 161 14 476 -10 637 -55 370 -177 726 -351 1030 -36 62 -65
116 -65 120 0 4 27 36 60 73 109 121 156 256 147 422 -7 114 -26 190 -72 287
-64 136 -142 227 -291 339 -321 243 -719 385 -1228 439 -176 18 -525 26 -651
14z m720 -289 c275 -41 609 -136 790 -225 165 -82 301 -220 388 -394 41 -83
42 -86 42 -190 0 -87 -5 -116 -24 -164 -48 -120 -172 -278 -296 -377 -71 -56
-94 -97 -77 -135 23 -51 98 -46 217 15 44 22 85 40 92 40 14 0 65 -82 127
-208 56 -111 96 -209 147 -360 l38 -112 -37 -16 c-58 -26 -218 -29 -382 -9
-318 39 -461 -5 -535 -167 -48 -105 -56 -182 -54 -528 2 -327 -2 -374 -44
-470 -42 -96 -126 -170 -215 -189 -105 -21 -244 29 -293 108 -59 92 -71 153
-79 411 -9 265 -23 347 -73 431 -18 29 -52 67 -75 84 -42 29 -47 30 -155 30
-104 0 -125 -4 -282 -49 -211 -60 -300 -68 -393 -37 -130 44 -201 111 -274
259 -84 169 -144 210 -342 232 -269 31 -325 49 -400 130 -69 74 -69 80 12 243
99 199 107 210 133 196 67 -35 244 -89 295 -89 102 0 155 42 120 96 -16 24
-76 66 -171 120 -79 44 -196 168 -236 249 -33 67 -34 75 -34 185 0 107 2 120
31 186 173 397 636 646 1329 713 61 6 126 13 145 15 89 10 432 -4 565 -24z
m-1958 -2227 c169 -77 208 -102 208 -128 0 -29 -41 -44 -141 -50 -187 -12
-212 -22 -193 -73 15 -40 45 -68 142 -134 48 -33 91 -66 94 -75 11 -27 -39
-59 -128 -82 -113 -29 -129 -37 -129 -61 0 -36 78 -107 177 -162 152 -84 148
-115 -21 -154 -87 -19 -106 -29 -106 -55 0 -38 34 -80 110 -137 90 -68 110
-87 110 -107 0 -18 -40 -39 -108 -55 -86 -20 -87 -53 -6 -133 26 -26 76 -66
110 -89 69 -47 81 -63 62 -86 -10 -12 -29 -13 -96 -9 -111 7 -138 28 -209 162
-191 365 -233 865 -112 1335 32 121 50 160 75 160 9 0 81 -30 161 -67z"/>
<path d="M2355 4573 c-273 -34 -372 -58 -505 -121 -173 -82 -290 -228 -298
-373 -5 -77 6 -118 50 -183 33 -51 123 -119 203 -154 118 -52 349 -110 530
-133 167 -21 457 -17 609 10 414 72 623 233 620 476 -1 89 -28 149 -101 220
-114 113 -367 210 -653 250 -95 13 -374 18 -455 8z m395 -414 c307 -28 480
-92 480 -177 0 -27 -6 -33 -52 -55 -73 -34 -160 -53 -318 -72 -262 -29 -497
-16 -709 40 -98 27 -211 72 -211 86 0 4 11 21 25 37 46 55 207 110 405 137
121 16 234 18 380 4z"/>
</g>
</svg>
