<?xml version="1.0" standalone="no"?>
<!DOCTYPE svg PUBLIC "-//W3C//DTD SVG 20010904//EN"
 "http://www.w3.org/TR/2001/REC-SVG-20010904/DTD/svg10.dtd">
<svg version="1.0" xmlns="http://www.w3.org/2000/svg"
 width="512.000000pt" height="512.000000pt" viewBox="0 0 512.000000 512.000000"
 preserveAspectRatio="xMidYMid meet">
<metadata>
Created by potrace 1.14, written by Peter Selinger 2001-2017
</metadata>
<g transform="translate(0.000000,512.000000) scale(0.100000,-0.100000)"
fill="#000000" stroke="none">
<path d="M2305 5109 c-121 -12 -175 -20 -294 -44 -107 -22 -245 -57 -281 -72
-8 -3 -19 -7 -25 -8 -34 -8 -209 -81 -286 -120 -269 -135 -463 -302 -626 -540
-52 -76 -94 -181 -109 -270 -22 -131 12 -337 76 -467 l31 -63 -52 -90 c-68
-117 -151 -291 -189 -396 -17 -46 -35 -93 -40 -104 -20 -41 -89 -303 -109
-410 -39 -215 -44 -270 -45 -485 -1 -216 6 -307 39 -485 99 -524 348 -911 765
-1185 295 -193 648 -308 1097 -357 137 -15 660 -7 714 11 8 3 37 7 64 10 28 3
75 10 105 16 30 6 66 14 80 16 58 11 184 46 267 73 580 190 983 570 1171 1106
36 103 78 268 88 350 3 22 7 46 9 53 12 36 20 190 20 382 -1 271 -7 332 -57
563 -63 295 -179 596 -324 844 -30 51 -54 95 -54 98 0 3 13 18 28 33 48 47
110 136 136 193 87 198 46 478 -100 682 -53 74 -78 99 -179 181 -115 94 -213
157 -345 222 -278 139 -589 219 -1005 259 -94 9 -492 12 -570 4z"/>
</g>
</svg>
